# xmcd CD database file
#
# Track frame offsets:
#	150
#	20127
#	36437
#	53405
#	75177
#	94917
#	117327
#	134827
#	159682
#	180052
#	201980
#	220482
#	242865
#	264235
#
# Disc length: 3784 seconds
#
# Revision: 5
# Processed by: cddbd v1.5.2PL0 Copyright (c) Steve Scherf et al.
# Submitted via: CDex 1.70beta2
#
DISCID=c20ec60e
DTITLE=嵐 - ARASHIC
DYEAR=2006
DGENRE=JPop
TTITLE0=WISH
TTITLE1=ランナウェイ・トレイン
TTITLE2=Raise Your Hands
TTITLE3=きっと大丈夫
TTITLE4=Ready To Fly
TTITLE5=キャラメル・ソング
TTITLE6=COOL ＆ SOUL
TTITLE7=旅立ちの朝
TTITLE8=I Want Somebody
TTITLE9=Secret Eyes
TTITLE10=超2ありがとう
TTITLE11=CARNIVAL NIGHT part2
TTITLE12=シルバーリング
TTITLE13=LOVE PARADE（Bonus Track）
EXTD=YEAR: 2006
EXTT0=
EXTT1=
EXTT2=
EXTT3=
EXTT4=
EXTT5=
EXTT6=
EXTT7=
EXTT8=
EXTT9=
EXTT10=
EXTT11=
EXTT12=
EXTT13=
PLAYORDER=
